<svg width="12" height="13" viewBox="0 0 12 13" fill="none" xmlns="http://www.w3.org/2000/svg">
<g clip-path="url(#clip0_1973_2512)">
<path d="M6 12.5C9.31371 12.5 12 9.81371 12 6.5C12 3.18629 9.31371 0.5 6 0.5C2.68629 0.5 0 3.18629 0 6.5C0 9.81371 2.68629 12.5 6 12.5Z" fill="#F0F0F0"/>
<path d="M12 6.5001C12 4.12133 10.6157 2.06596 8.6087 1.09546V11.9047C10.6157 10.9342 12 8.87886 12 6.5001Z" fill="#D80027"/>
<path d="M0 6.5001C0 8.87886 1.38434 10.9342 3.39131 11.9047V1.09546C1.38434 2.06596 0 4.12133 0 6.5001Z" fill="#D80027"/>
<path d="M7.04345 7.28276L8.08692 6.76102L7.5652 6.50016V5.97842L6.52171 6.50016L7.04345 5.45667H6.52171L5.99997 4.67407L5.47823 5.45667H4.95649L5.47823 6.50016L4.43474 5.97842V6.50016L3.91302 6.76102L4.95649 7.28276L4.69563 7.8045H5.73911V8.5871H6.26083V7.8045H7.30431L7.04345 7.28276Z" fill="#D80027"/>
</g>
<defs>
<clipPath id="clip0_1973_2512">
<rect width="12" height="12" fill="white" transform="translate(0 0.5)"/>
</clipPath>
</defs>
</svg>
