<svg width="12" height="13" viewBox="0 0 12 13" fill="none" xmlns="http://www.w3.org/2000/svg">
<g clip-path="url(#clip0_1973_2491)">
<path d="M6 12.5C9.31371 12.5 12 9.81371 12 6.5C12 3.18629 9.31371 0.5 6 0.5C2.68629 0.5 0 3.18629 0 6.5C0 9.81371 2.68629 12.5 6 12.5Z" fill="#F0F0F0"/>
<path d="M1.24028 2.84717C0.768978 3.46036 0.413595 4.16712 0.206665 4.93491H3.32802L1.24028 2.84717Z" fill="#0052B4"/>
<path d="M11.7932 4.93489C11.5863 4.16712 11.2309 3.46036 10.7596 2.84717L8.67194 4.93489H11.7932Z" fill="#0052B4"/>
<path d="M0.206665 8.06543C0.413618 8.8332 0.769001 9.53995 1.24028 10.1531L3.32795 8.06543H0.206665Z" fill="#0052B4"/>
<path d="M9.6529 1.74043C9.03971 1.26912 8.33297 0.91374 7.56519 0.706787V3.82812L9.6529 1.74043Z" fill="#0052B4"/>
<path d="M2.34705 11.2598C2.96024 11.7311 3.667 12.0865 4.43476 12.2934V9.17212L2.34705 11.2598Z" fill="#0052B4"/>
<path d="M4.43474 0.706787C3.66698 0.91374 2.96022 1.26912 2.34705 1.7404L4.43474 3.8281V0.706787Z" fill="#0052B4"/>
<path d="M7.56519 12.2934C8.33295 12.0865 9.03971 11.7311 9.65288 11.2598L7.56519 9.17212V12.2934Z" fill="#0052B4"/>
<path d="M8.67194 8.06543L10.7596 10.1531C11.2309 9.53998 11.5863 8.8332 11.7932 8.06543H8.67194Z" fill="#0052B4"/>
<path d="M11.9492 5.7174H6.78265H6.78263V0.550789C6.52643 0.517438 6.26524 0.5 6 0.5C5.73471 0.5 5.47357 0.517438 5.2174 0.550789V5.71735V5.71737H0.0507891C0.0174375 5.97357 0 6.23476 0 6.5C0 6.76529 0.0174375 7.02643 0.0507891 7.2826H5.21735H5.21737V12.4492C5.47357 12.4826 5.73471 12.5 6 12.5C6.26524 12.5 6.52643 12.4826 6.7826 12.4492V7.28265V7.28263H11.9492C11.9826 7.02643 12 6.76529 12 6.5C12 6.23476 11.9826 5.97357 11.9492 5.7174Z" fill="#D80027"/>
<path d="M7.56525 8.06521L10.2427 10.7426C10.3658 10.6195 10.4833 10.4908 10.5953 10.3574L8.30311 8.06519H7.56525V8.06521Z" fill="#D80027"/>
<path d="M4.43475 8.06519H4.43471L1.75732 10.7426C1.88042 10.8657 2.00911 10.9832 2.14252 11.0953L4.43475 8.80297V8.06519Z" fill="#D80027"/>
<path d="M4.43476 4.9348V4.93475L1.75735 2.25732C1.63421 2.38042 1.51674 2.50911 1.40466 2.64252L3.69692 4.93478H4.43476V4.9348Z" fill="#D80027"/>
<path d="M7.56525 4.9349L10.2427 2.25745C10.1196 2.13431 9.99089 2.01684 9.85748 1.90479L7.56525 4.19704V4.9349Z" fill="#D80027"/>
</g>
<defs>
<clipPath id="clip0_1973_2491">
<rect width="12" height="12" fill="white" transform="translate(0 0.5)"/>
</clipPath>
</defs>
</svg>
