<svg width="12" height="13" viewBox="0 0 12 13" fill="none" xmlns="http://www.w3.org/2000/svg">
<g clip-path="url(#clip0_1973_2478)">
<path d="M8.08693 0.873195C7.43694 0.632023 6.73391 0.5 5.99998 0.5C5.26606 0.5 4.56303 0.632023 3.91304 0.873195L3.3913 6.5L3.91304 12.1268C4.56303 12.368 5.26606 12.5 5.99998 12.5C6.73391 12.5 7.43694 12.368 8.08693 12.1268L8.60867 6.5L8.08693 0.873195Z" fill="#FFDA44"/>
<path d="M12 6.50007C12 3.92031 10.3718 1.72103 8.08698 0.873291V12.1269C10.3718 11.2791 12 9.07988 12 6.50007Z" fill="#D80027"/>
<path d="M0 6.50007C0 9.07989 1.62825 11.2791 3.91305 12.1269V0.873291C1.62825 1.72103 0 3.92031 0 6.50007Z" fill="black"/>
</g>
<defs>
<clipPath id="clip0_1973_2478">
<rect width="12" height="12" fill="white" transform="translate(0 0.5)"/>
</clipPath>
</defs>
</svg>
