<svg width="12" height="13" viewBox="0 0 12 13" fill="none" xmlns="http://www.w3.org/2000/svg">
<g clip-path="url(#clip0_1973_2472)">
<path d="M0.373169 8.5869C1.22093 10.8717 3.42018 12.5 5.99997 12.5C8.57976 12.5 10.779 10.8717 11.6268 8.5869L5.99997 8.06519L0.373169 8.5869Z" fill="#FFDA44"/>
<path d="M5.99997 0.5C3.42018 0.5 1.22093 2.12825 0.373169 4.41305L5.99997 4.93477L11.6268 4.41303C10.779 2.12825 8.57976 0.5 5.99997 0.5Z" fill="black"/>
<path d="M0.373195 4.41309C0.132023 5.06308 0 5.76611 0 6.50003C0 7.23395 0.132023 7.93698 0.373195 8.58698H11.6268C11.868 7.93698 12 7.23395 12 6.50003C12 5.76611 11.868 5.06308 11.6268 4.41309H0.373195Z" fill="#D80027"/>
</g>
<defs>
<clipPath id="clip0_1973_2472">
<rect width="12" height="12" fill="white" transform="translate(0 0.5)"/>
</clipPath>
</defs>
</svg>
