<svg width="12" height="13" viewBox="0 0 12 13" fill="none" xmlns="http://www.w3.org/2000/svg">
<g clip-path="url(#clip0_1973_2466)">
<path d="M6 12.5C9.31371 12.5 12 9.81371 12 6.5C12 3.18629 9.31371 0.5 6 0.5C2.68629 0.5 0 3.18629 0 6.5C0 9.81371 2.68629 12.5 6 12.5Z" fill="#F0F0F0"/>
<path d="M12 6.5001C12 3.92031 10.3718 1.72105 8.08698 0.873291V12.1269C10.3718 11.2791 12 9.07988 12 6.5001Z" fill="#D80027"/>
<path d="M0 6.5001C0 9.07988 1.62825 11.2791 3.91305 12.1269V0.873291C1.62825 1.72105 0 3.92031 0 6.5001Z" fill="#6DA544"/>
</g>
<defs>
<clipPath id="clip0_1973_2466">
<rect width="12" height="12" fill="white" transform="translate(0 0.5)"/>
</clipPath>
</defs>
</svg>
