<svg width="12" height="13" viewBox="0 0 12 13" fill="none" xmlns="http://www.w3.org/2000/svg">
<path d="M6 12.5C5.18 12.5 4.405 12.3425 3.675 12.0275C2.945 11.7125 2.3075 11.2825 1.7625 10.7375C1.2175 10.1925 0.7875 9.555 0.4725 8.825C0.1575 8.095 0 7.32 0 6.5C0 5.67 0.1575 4.8925 0.4725 4.1675C0.7875 3.4425 1.2175 2.8075 1.7625 2.2625C2.3075 1.7175 2.945 1.2875 3.675 0.9725C4.405 0.6575 5.18 0.5 6 0.5C6.83 0.5 7.6075 0.6575 8.3325 0.9725C9.0575 1.2875 9.6925 1.7175 10.2375 2.2625C10.7825 2.8075 11.2125 3.4425 11.5275 4.1675C11.8425 4.8925 12 5.67 12 6.5C12 7.32 11.8425 8.095 11.5275 8.825C11.2125 9.555 10.7825 10.1925 10.2375 10.7375C9.6925 11.2825 9.0575 11.7125 8.3325 12.0275C7.6075 12.3425 6.83 12.5 6 12.5ZM6 11.27C6.26 10.91 6.485 10.535 6.675 10.145C6.865 9.755 7.02 9.34 7.14 8.9H4.86C4.98 9.34 5.135 9.755 5.325 10.145C5.515 10.535 5.74 10.91 6 11.27ZM4.44 11.03C4.26 10.7 4.1025 10.3575 3.9675 10.0025C3.8325 9.6475 3.72 9.28 3.63 8.9H1.86C2.15 9.4 2.5125 9.835 2.9475 10.205C3.3825 10.575 3.88 10.85 4.44 11.03ZM7.56 11.03C8.12 10.85 8.6175 10.575 9.0525 10.205C9.4875 9.835 9.85 9.4 10.14 8.9H8.37C8.28 9.28 8.1675 9.6475 8.0325 10.0025C7.8975 10.3575 7.74 10.7 7.56 11.03ZM1.35 7.7H3.39C3.36 7.5 3.3375 7.3025 3.3225 7.1075C3.3075 6.9125 3.3 6.71 3.3 6.5C3.3 6.29 3.3075 6.0875 3.3225 5.8925C3.3375 5.6975 3.36 5.5 3.39 5.3H1.35C1.3 5.5 1.2625 5.6975 1.2375 5.8925C1.2125 6.0875 1.2 6.29 1.2 6.5C1.2 6.71 1.2125 6.9125 1.2375 7.1075C1.2625 7.3025 1.3 7.5 1.35 7.7ZM4.59 7.7H7.41C7.44 7.5 7.4625 7.3025 7.4775 7.1075C7.4925 6.9125 7.5 6.71 7.5 6.5C7.5 6.29 7.4925 6.0875 7.4775 5.8925C7.4625 5.6975 7.44 5.5 7.41 5.3H4.59C4.56 5.5 4.5375 5.6975 4.5225 5.8925C4.5075 6.0875 4.5 6.29 4.5 6.5C4.5 6.71 4.5075 6.9125 4.5225 7.1075C4.5375 7.3025 4.56 7.5 4.59 7.7ZM8.61 7.7H10.65C10.7 7.5 10.7375 7.3025 10.7625 7.1075C10.7875 6.9125 10.8 6.71 10.8 6.5C10.8 6.29 10.7875 6.0875 10.7625 5.8925C10.7375 5.6975 10.7 5.5 10.65 5.3H8.61C8.64 5.5 8.6625 5.6975 8.6775 5.8925C8.6925 6.0875 8.7 6.29 8.7 6.5C8.7 6.71 8.6925 6.9125 8.6775 7.1075C8.6625 7.3025 8.64 7.5 8.61 7.7ZM8.37 4.1H10.14C9.85 3.6 9.4875 3.165 9.0525 2.795C8.6175 2.425 8.12 2.15 7.56 1.97C7.74 2.3 7.8975 2.6425 8.0325 2.9975C8.1675 3.3525 8.28 3.72 8.37 4.1ZM4.86 4.1H7.14C7.02 3.66 6.865 3.245 6.675 2.855C6.485 2.465 6.26 2.09 6 1.73C5.74 2.09 5.515 2.465 5.325 2.855C5.135 3.245 4.98 3.66 4.86 4.1ZM1.86 4.1H3.63C3.72 3.72 3.8325 3.3525 3.9675 2.9975C4.1025 2.6425 4.26 2.3 4.44 1.97C3.88 2.15 3.3825 2.425 2.9475 2.795C2.5125 3.165 2.15 3.6 1.86 4.1Z" fill="#74604E"/>
</svg>
