<svg width="12" height="13" viewBox="0 0 12 13" fill="none" xmlns="http://www.w3.org/2000/svg">
<g clip-path="url(#clip0_1973_2488)">
<path d="M11.6268 8.58699C11.868 7.93702 12 7.23397 12 6.50004C12 5.76612 11.868 5.06312 11.6268 4.4131L6 3.89136L0.373195 4.4131C0.132023 5.06312 0 5.76612 0 6.50004C0 7.23397 0.132023 7.93702 0.373195 8.58699L6 9.10873L11.6268 8.58699Z" fill="#F0F0F0"/>
<path d="M6 12.5C8.57976 12.5 10.779 10.8717 11.6268 8.58691H0.373169C1.22095 10.8717 3.42018 12.5 6 12.5Z" fill="#D80027"/>
<path d="M6 0.5C3.42018 0.5 1.22095 2.12825 0.373169 4.41305H11.6268C10.779 2.12825 8.57976 0.5 6 0.5Z" fill="#D80027"/>
</g>
<defs>
<clipPath id="clip0_1973_2488">
<rect width="12" height="12" fill="white" transform="translate(0 0.5)"/>
</clipPath>
</defs>
</svg>
