<?xml version="1.0" encoding="UTF-8" standalone="no" ?>
<!DOCTYPE svg PUBLIC "-//W3C//DTD SVG 1.1//EN" "http://www.w3.org/Graphics/SVG/1.1/DTD/svg11.dtd">
<svg xmlns="http://www.w3.org/2000/svg" xmlns:xlink="http://www.w3.org/1999/xlink" version="1.1" width="1080" height="1080" viewBox="0 0 1080 1080" xml:space="preserve">
<desc>Created with Fabric.js 4.2.0</desc>
<defs>
</defs>
<g transform="matrix(1 0 0 1 540 540)" id="fc66c31a-b1ed-4d74-8c4f-c5767c4bc227"  >
<rect style="stroke: none; stroke-width: 1; stroke-dasharray: none; stroke-linecap: butt; stroke-dashoffset: 0; stroke-linejoin: miter; stroke-miterlimit: 4; fill: transparent; fill-rule: nonzero; opacity: 1;" vector-effect="non-scaling-stroke"  x="-540" y="-540" rx="0" ry="0" width="1080" height="1080" />
</g>
<g transform="matrix(1 0 0 1 540 540)" id="70129da0-0c56-4861-9ddf-3a7c782bab8f"  >
</g>
<g transform="matrix(17.03 0 0 17.03 173.44 540)" id="e21843bc-8ecc-4151-85b5-288485176938"  >
<polygon style="stroke: rgb(0,0,0); stroke-width: 0; stroke-dasharray: none; stroke-linecap: butt; stroke-dashoffset: 0; stroke-linejoin: miter; stroke-miterlimit: 4; fill: rgb(0,0,0); fill-rule: nonzero; opacity: 1;" vector-effect="non-scaling-stroke"  points="9.55,-16.26 8.13,-17.68 -8.13,-1.41 -9.55,0 -8.13,1.41 8.13,17.68 9.55,16.26 -6.72,0 " />
</g>
<g transform="matrix(17.17 0 0 17.17 904.18 540)" id="0292b3f2-bb67-44f9-8d1a-cd5ae769ffaa"  >
<polygon style="stroke: rgb(0,0,0); stroke-width: 0; stroke-dasharray: none; stroke-linecap: butt; stroke-dashoffset: 0; stroke-linejoin: miter; stroke-miterlimit: 4; fill: rgb(0,0,0); fill-rule: nonzero; opacity: 1;" vector-effect="non-scaling-stroke"  points="-9.54,16.26 -8.13,17.68 8.13,1.41 9.55,0 8.13,-1.41 -8.13,-17.68 -9.54,-16.26 6.72,0 " />
</g>
</svg>