<svg width="17" height="17" viewBox="0 0 17 17" fill="none" xmlns="http://www.w3.org/2000/svg">
<path d="M8.5 0.500001C6.37827 0.500001 4.34339 1.34287 2.84318 2.84318C1.34287 4.3435 0.5 6.37834 0.5 8.5C0.5 10.6217 1.34287 12.6566 2.84318 14.1568C4.3435 15.6571 6.37834 16.5 8.5 16.5C10.6217 16.5 12.6566 15.6571 14.1568 14.1568C15.6571 12.6565 16.5 10.6217 16.5 8.5C16.5 6.37834 15.6571 4.34339 14.1568 2.84318C12.6565 1.34287 10.6217 0.500001 8.5 0.500001ZM8.5 15.6114C6.61396 15.6114 4.80518 14.8621 3.47176 13.5285C2.13811 12.195 1.38885 10.3862 1.38885 8.50023C1.38885 6.61427 2.13811 4.80541 3.47176 3.47199C4.80526 2.13834 6.61404 1.38908 8.5 1.38908C10.386 1.38908 12.1948 2.13834 13.5282 3.47199C14.8619 4.80549 15.6112 6.61427 15.6112 8.50023C15.6089 10.3855 14.8591 12.1931 13.5259 13.5262C12.1928 14.8594 10.3853 15.6092 8.5 15.6114ZM12.9446 8.94465C12.9446 9.06251 12.8979 9.17561 12.8144 9.25894C12.7311 9.34228 12.618 9.38915 12.5001 9.389H8.0555C7.93764 9.38915 7.82455 9.34228 7.74121 9.25894C7.65788 9.17561 7.611 9.06251 7.61115 8.94465V3.61127C7.61115 3.36573 7.81011 3.16677 8.0555 3.16677C8.30103 3.16677 8.5 3.36573 8.5 3.61127V8.50008H12.5C12.6179 8.50008 12.731 8.54681 12.8143 8.63014C12.8978 8.71347 12.9446 8.82664 12.9446 8.94465Z" fill="#512C1F"/>
</svg>
