<svg width="16" height="19" viewBox="0 0 16 19" fill="none" xmlns="http://www.w3.org/2000/svg">
<path d="M1.43606 1.0485L1.43615 1.04855L14.643 9.13636C14.7558 9.20548 14.8373 9.34212 14.8373 9.50023C14.8373 9.66473 14.7563 9.79814 14.6492 9.86365L14.6491 9.86375L1.44766 17.9514C1.44765 17.9514 1.44763 17.9514 1.44762 17.9514C1.38674 17.9887 1.33946 18 1.2904 18C1.24879 18 1.21297 17.9932 1.14469 17.9514L1.14456 17.9513C1.07548 17.909 1 17.8053 1 17.5879V1.41229C1 1.19485 1.07534 1.09116 1.14494 1.04853L0.883776 0.622156L1.14463 1.04871C1.25099 0.983671 1.33066 0.983924 1.43606 1.0485Z" stroke="#512C1F"/>
</svg>
