<svg width="17" height="17" viewBox="0 0 17 17" fill="none" xmlns="http://www.w3.org/2000/svg">
<path d="M8.75008 15.5002C12.7543 15.5002 16.0002 12.2543 16.0002 8.25008C16.0002 4.24586 12.7543 1 8.75008 1C4.74586 1 1.5 4.24586 1.5 8.25008C1.5 12.2543 4.74586 15.5002 8.75008 15.5002Z" stroke="#512C1F" stroke-width="1.3" stroke-linecap="round" stroke-linejoin="round"/>
<path d="M5.84995 1.72461H6.57495C5.16121 5.95979 5.16121 10.5396 6.57495 14.7748H5.84995M10.925 1.72461C12.3387 5.95979 12.3387 10.5396 10.925 14.7748" stroke="#512C1F" stroke-width="1.3" stroke-linecap="round" stroke-linejoin="round"/>
<path d="M2.22485 11.151V10.426C6.46004 11.8397 11.0398 11.8397 15.275 10.426V11.151M2.22485 6.07593C6.46004 4.66219 11.0398 4.66219 15.275 6.07593" stroke="#512C1F" stroke-width="1.3" stroke-linecap="round" stroke-linejoin="round"/>
</svg>
