<svg width="16" height="17" viewBox="0 0 16 17" fill="none" xmlns="http://www.w3.org/2000/svg">
<path d="M4.03 13.5365C4.69274 13.5365 5.23 12.9992 5.23 12.3365C5.23 11.6738 4.69274 11.1365 4.03 11.1365C3.36726 11.1365 2.83 11.6738 2.83 12.3365C2.83 12.9992 3.36726 13.5365 4.03 13.5365Z" stroke="#FBFBFB" stroke-width="0.9" stroke-linecap="round" stroke-linejoin="round"/>
<path d="M11.95 13.5365C12.6127 13.5365 13.15 12.9992 13.15 12.3365C13.15 11.6738 12.6127 11.1365 11.95 11.1365C11.2873 11.1365 10.75 11.6738 10.75 12.3365C10.75 12.9992 11.2873 13.5365 11.95 13.5365Z" stroke="#FBFBFB" stroke-width="0.9" stroke-linecap="round" stroke-linejoin="round"/>
<path d="M14.49 9.0765L12.37 5.2865H10.49V4.2865H1.50999V12.2865H2.83999C2.83999 12.2865 2.82999 12.3165 2.82999 12.3365C2.82999 12.9965 3.36999 13.5365 4.02999 13.5365C4.68999 13.5365 5.22999 12.9965 5.22999 12.3365C5.22999 12.3165 5.22999 12.3065 5.21999 12.2865H10.76C10.76 12.2865 10.75 12.3165 10.75 12.3365C10.75 12.9965 11.29 13.5365 11.95 13.5365C12.61 13.5365 13.15 12.9965 13.15 12.3365C13.15 12.3165 13.15 12.3065 13.14 12.2865H14.49V9.0765Z" stroke="#FBFBFB" stroke-width="0.9" stroke-linecap="round" stroke-linejoin="round"/>
<path d="M10.49 4.2865V12.2865" stroke="#FBFBFB" stroke-width="0.9" stroke-linecap="round" stroke-linejoin="round"/>
</svg>
