<svg width="12" height="13" viewBox="0 0 12 13" fill="none" xmlns="http://www.w3.org/2000/svg">
<g clip-path="url(#clip0_1973_2485)">
<path d="M6 12.5C9.31371 12.5 12 9.81371 12 6.5C12 3.18629 9.31371 0.5 6 0.5C2.68629 0.5 0 3.18629 0 6.5C0 9.81371 2.68629 12.5 6 12.5Z" fill="#F0F0F0"/>
<path d="M5.99997 0.5C3.42018 0.5 1.22093 2.12825 0.373169 4.41305H11.6268C10.779 2.12825 8.57976 0.5 5.99997 0.5Z" fill="#A2001D"/>
<path d="M5.99997 12.5C8.57976 12.5 10.779 10.8717 11.6268 8.58691H0.373169C1.22093 10.8717 3.42018 12.5 5.99997 12.5Z" fill="#0052B4"/>
</g>
<defs>
<clipPath id="clip0_1973_2485">
<rect width="12" height="12" fill="white" transform="translate(0 0.5)"/>
</clipPath>
</defs>
</svg>
