<svg width="12" height="13" viewBox="0 0 12 13" fill="none" xmlns="http://www.w3.org/2000/svg">
<g clip-path="url(#clip0_1973_2520)">
<path d="M6 12.5C9.31371 12.5 12 9.81371 12 6.5C12 3.18629 9.31371 0.5 6 0.5C2.68629 0.5 0 3.18629 0 6.5C0 9.81371 2.68629 12.5 6 12.5Z" fill="#D80027"/>
<path d="M3.28359 4.15137L3.80156 5.74512H5.47734L4.12266 6.73184L4.64062 8.32559L3.28359 7.34121L1.92656 8.32559L2.44688 6.73184L1.08984 5.74512H2.76562L3.28359 4.15137Z" fill="#FFDA44"/>
<path d="M7.11329 9.79287L6.7172 9.30537L6.13126 9.53272L6.47111 9.00537L6.07501 8.51553L6.68204 8.67725L7.02423 8.1499L7.05704 8.77803L7.66642 8.93975L7.07814 9.16475L7.11329 9.79287Z" fill="#FFDA44"/>
<path d="M7.90079 8.36318L8.08829 7.76318L7.57501 7.3999L8.20314 7.39053L8.38829 6.79053L8.5922 7.38584L9.22032 7.37881L8.71642 7.75381L8.91798 8.34912L8.4047 7.98584L7.90079 8.36318Z" fill="#FFDA44"/>
<path d="M8.96249 4.90386L8.68593 5.4687L9.13592 5.90698L8.51483 5.81792L8.23827 6.38042L8.13046 5.76167L7.50702 5.67261L8.06483 5.37964L7.95702 4.75854L8.40702 5.19683L8.96249 4.90386Z" fill="#FFDA44"/>
<path d="M7.12968 3.19287L7.08281 3.81865L7.6664 4.05537L7.05468 4.20537L7.01015 4.8335L6.67968 4.29912L6.06796 4.44912L6.47343 3.96865L6.14062 3.43662L6.72421 3.67334L7.12968 3.19287Z" fill="#FFDA44"/>
</g>
<defs>
<clipPath id="clip0_1973_2520">
<rect width="12" height="12" fill="white" transform="translate(0 0.5)"/>
</clipPath>
</defs>
</svg>
