<svg xmlns="http://www.w3.org/2000/svg" role="img" aria-labelledby="illy_caffe_logo" fill="none" id="logo-illy" viewBox="0 0 50 50" style="color:#000;">
            <style type="text/css">
                .st0{fill:#E20D18;}
                .st1{fill:#ffffff;}
                .st2{fill:none;stroke:#000000;stroke-width:0.5;stroke-miterlimit:10;}
            </style>
            <g>
                <rect class="st0" height="50" width="50"></rect>
                <path class="st1" d="M11.8,15.15c-0.77-0.82-1.05-2.66,0.38-4.42c1.75-2.16,4.23-2.82,4.6-1.14c0.44,1.61,0,2.74-1,3.98
		c-0.53,0.63-1.13,1.21-1.56,1.59C13.5,15.8,12.56,15.96,11.8,15.15 M14.5,37.84c-2-0.33-2.32-1.3-2.61-3.25
		c-0.73-4.48,6.32-19.75,6.84-20.93c0.24-0.6,2.53-5.3,3.95-6.02c0.53-0.26,0.81-0.16,1.2,0.21c0.88,0.85,1.5,1.74,1.74,2.69
		c0.18,0.72,0.06,1.43-0.52,2.51c-0.45,0.86-1.88,3.88-2.29,4.9c-1.9,4.64-4.68,10.58-6.02,15.43c-0.24,0.84-0.75,2.71-1.33,3.77
		C15.14,37.7,14.91,37.9,14.5,37.84 M22.96,38.01c-0.93-0.31-1.78-1.39-2.14-2.22c-0.2-0.45-0.19-0.82-0.15-1.29
		c0.13-2.03,0.89-5.85,2.62-10.5c2.04-5.45,4.81-11.1,7.54-14.98c0.55-0.77,1.15-0.57,1.79-0.1c0.91,0.67,1.53,1.29,1.79,1.94
		c0.43,1.11-0.27,3-1.22,4.83c-2.52,4.87-4.72,10.03-6.46,15.23c-0.45,1.35-1.67,5-2.29,6.49C24.13,38.16,23.72,38.23,22.96,38.01
		 M25.36,44.45c1.93-0.98,10.32-7.53,10.32-8.81c-0.51,0.25-1.91,0.94-3.06,1.13c-1.01,0.16-1.47-0.18-2.14-0.89
		c-0.73-0.76-1.57-1.87-1.57-2.74c0-1.3,1.11-4.59,1.97-6.38c1.21-2.64,3.47-6.49,4.63-7.72c0.2-0.23,0.34-0.31,0.66-0.31
		c1.1,0,2.34,1.87,2.77,2.61c0.92,1.45-3.12,6.57-4.01,8.29c-0.57,1.1-1.36,2.42-0.89,2.8c0.2,0.15,0.39,0.14,0.59,0.02
		c0.72-0.45,1.42-1.03,2.02-1.63c1.47-1.51,3.75-4.53,6.06-8.79c0.21-0.37,0.93-1.62,1.49-1.68c0.2-0.01,0.34,0.13,0.47,0.25
		c0.8,0.65,2.01,1.77,2.05,2.38c0.01,0.33-0.3,1.49-0.73,2.88c-1.12,3.63-2.9,6.82-5.26,9.47c-2.99,3.33-6.81,5.83-10.46,8.04
		c-0.51,0.31-2.28,1.3-3.25,1.6c-0.35,0.11-0.69,0.08-1.05,0.06c-0.34-0.01-0.62-0.07-0.76-0.17
		C25.01,44.71,25.19,44.54,25.36,44.45 M3.38,35.11c-0.16-2.01,0.4-3.3,1.91-7.98c0.53-1.74,1.62-4.39,1.92-5.09
		c0.7-1.7,2.04-4.57,4.25-4.58c0.59-0.01,1.43,0.74,1.57,1.28c0.19,0.62-0.68,3.23-0.9,3.83c-1.07,3.02-2.61,6.56-3.79,11.69
		c-0.09,0.49-0.68,2.39-1.05,3.15c-0.1,0.21-0.16,0.32-0.4,0.37c-0.33,0.07-0.93,0.06-1.41,0.01C4.19,37.67,3.46,36.3,3.38,35.11"></path>
                <path class="st1" d="M44.7,37.37c0,0.51-0.21,0.97-0.55,1.3c-0.34,0.34-0.81,0.51-1.32,0.51c-0.51,0-0.98-0.17-1.32-0.51
		c-0.35-0.33-0.56-0.79-0.56-1.3v-0.04c0-0.52,0.21-0.97,0.56-1.27c0.34-0.34,0.81-0.55,1.32-0.55c0.51,0,0.98,0.21,1.32,0.55
		c0.34,0.3,0.55,0.76,0.55,1.27V37.37z M44.31,35.9c-0.38-0.38-0.88-0.63-1.48-0.63c-0.6,0-1.11,0.25-1.49,0.63
		c-0.39,0.38-0.6,0.88-0.6,1.44v0.04c0,0.54,0.21,1.05,0.6,1.43c0.38,0.38,0.89,0.63,1.49,0.63c0.6,0,1.1-0.25,1.48-0.63
		c0.39-0.38,0.6-0.89,0.6-1.43v-0.04C44.91,36.77,44.7,36.27,44.31,35.9"></path>
                <path class="st1" d="M43.17,37.14c-0.08,0.05-0.17,0.08-0.34,0.08H42.7h-0.35v-0.76h0.35h0.13c0.17,0,0.26,0.05,0.34,0.09
		c0.09,0.05,0.17,0.17,0.17,0.29C43.34,36.97,43.26,37.1,43.17,37.14 M43.63,37.22c0.1-0.12,0.13-0.25,0.13-0.42
		c0-0.21-0.09-0.38-0.21-0.46c-0.17-0.13-0.43-0.18-0.72-0.18h-0.05h-0.89v2.37h0.46v-1.02h0.43l0.05,0.08l0.42,0.94h0.51l-0.51-1.1
		C43.42,37.39,43.55,37.36,43.63,37.22"></path>
            </g>
</svg>