<svg width="13" height="13" viewBox="0 0 13 13" fill="none" xmlns="http://www.w3.org/2000/svg">
<g clip-path="url(#clip0_1973_2808)">
<path d="M6.5 12.5562C9.81371 12.5562 12.5 9.86986 12.5 6.55615C12.5 3.24244 9.81371 0.556152 6.5 0.556152C3.18629 0.556152 0.5 3.24244 0.5 6.55615C0.5 9.86986 3.18629 12.5562 6.5 12.5562Z" fill="#F0F0F0"/>
<path d="M6.23877 6.55619H12.4996C12.4996 6.01465 12.4274 5.49002 12.2929 4.99097H6.23877V6.55619Z" fill="#D80027"/>
<path d="M6.23877 3.42582H11.619C11.2517 2.82648 10.7821 2.29672 10.2345 1.8606H6.23877V3.42582Z" fill="#D80027"/>
<path d="M6.50004 12.5563C7.91213 12.5563 9.21003 12.0682 10.2349 11.252H2.76514C3.79006 12.0682 5.08796 12.5563 6.50004 12.5563Z" fill="#D80027"/>
<path d="M1.38049 9.68656H11.6192C11.9141 9.20542 12.1428 8.67948 12.2932 8.12134H0.706543C0.856941 8.67948 1.08562 9.20542 1.38049 9.68656Z" fill="#D80027"/>
<path d="M3.27931 1.49314H3.82609L3.31749 1.86263L3.51177 2.4605L3.0032 2.091L2.49462 2.4605L2.66244 1.944C2.21464 2.31701 1.82216 2.75403 1.49872 3.24096H1.67391L1.35017 3.47616C1.29973 3.5603 1.25136 3.64578 1.205 3.73252L1.35959 4.20832L1.07117 3.99877C0.999477 4.15067 0.933898 4.30599 0.874953 4.46454L1.04527 4.98879H1.67391L1.16532 5.35829L1.35959 5.95615L0.851023 5.58666L0.546383 5.808C0.515891 6.05311 0.5 6.30277 0.5 6.55615H6.5C6.5 3.24246 6.5 2.85181 6.5 0.556152C5.31472 0.556152 4.2098 0.89998 3.27931 1.49314ZM3.51177 5.95615L3.0032 5.58666L2.49462 5.95615L2.6889 5.35829L2.1803 4.98879H2.80895L3.0032 4.39093L3.19745 4.98879H3.82609L3.31749 5.35829L3.51177 5.95615ZM3.31749 3.61046L3.51177 4.20832L3.0032 3.83883L2.49462 4.20832L2.6889 3.61046L2.1803 3.24096H2.80895L3.0032 2.6431L3.19745 3.24096H3.82609L3.31749 3.61046ZM5.66394 5.95615L5.15537 5.58666L4.6468 5.95615L4.84107 5.35829L4.33248 4.98879H4.96112L5.15537 4.39093L5.34962 4.98879H5.97826L5.46966 5.35829L5.66394 5.95615ZM5.46966 3.61046L5.66394 4.20832L5.15537 3.83883L4.6468 4.20832L4.84107 3.61046L4.33248 3.24096H4.96112L5.15537 2.6431L5.34962 3.24096H5.97826L5.46966 3.61046ZM5.46966 1.86263L5.66394 2.4605L5.15537 2.091L4.6468 2.4605L4.84107 1.86263L4.33248 1.49314H4.96112L5.15537 0.89527L5.34962 1.49314H5.97826L5.46966 1.86263Z" fill="#0052B4"/>
</g>
<defs>
<clipPath id="clip0_1973_2808">
<rect width="12" height="12" fill="white" transform="translate(0.5 0.556152)"/>
</clipPath>
</defs>
</svg>
