<?xml version="1.0" encoding="utf-8"?>
<!-- Generator: Adobe Illustrator 16.0.0, SVG Export Plug-In . SVG Version: 6.00 Build 0)  -->
<!DOCTYPE svg PUBLIC "-//W3C//DTD SVG 1.1//EN" "http://www.w3.org/Graphics/SVG/1.1/DTD/svg11.dtd">
<svg version="1.1" id="Layer_1" xmlns="http://www.w3.org/2000/svg" xmlns:xlink="http://www.w3.org/1999/xlink" x="0px" y="0px"
	 width="24px" height="24px" viewBox="0 0 24 24" enable-background="new 0 0 24 24" xml:space="preserve">
<path d="M12.858,1.957c-5.751,0-8.652,4.124-8.652,7.562c0,2.082,0.788,3.934,2.479,4.624c0.277,0.114,0.525,0.004,0.606-0.303
	c0.056-0.211,0.188-0.748,0.247-0.971c0.081-0.305,0.049-0.41-0.174-0.675c-0.487-0.575-0.8-1.319-0.8-2.374
	c0-3.059,2.289-5.798,5.961-5.798c3.25,0,5.036,1.986,5.036,4.639c0,3.491-1.545,6.437-3.837,6.437
	c-1.267,0-2.214-1.047-1.912-2.332c0.364-1.533,1.068-3.188,1.068-4.295c0-0.991-0.532-1.817-1.632-1.817
	c-1.294,0-2.334,1.339-2.334,3.133c0,1.143,0.386,1.916,0.386,1.916s-1.325,5.614-1.558,6.597c-0.462,1.957-0.069,4.356-0.036,4.599
	c0.02,0.144,0.204,0.179,0.289,0.069c0.119-0.155,1.662-2.059,2.185-3.961c0.149-0.538,0.852-3.327,0.852-3.327
	c0.42,0.803,1.649,1.509,2.957,1.509c3.891,0,6.531-3.549,6.531-8.296C20.521,5.301,17.48,1.957,12.858,1.957z"/>
</svg>
