<svg xmlns="http://www.w3.org/2000/svg" viewBox="0 0 48 48">
  <defs>
    <clipPath id="a">
      <path fill="#fff" d="M0 0h48v48H0z"/>
    </clipPath>
  </defs>
  <path fill="none" d="M-1-1h582v402H-1z"/>
  <g clip-path="url(#a)">
    <path d="M23.99996 4.00012C12.94996 4.00012 4 12.9501 4 24.0001s8.94996 20 19.99996 20 20-8.95 20-20-8.95-19.99998-20-19.99998z"/>
    <path fill="#fff" stroke="null" d="M30.0085 23.1454c-.2154-.221-.5163-.3376-.8237-.3208l-3.7214.2072 2.048-2.3325c.2917-.3322.3751-.7752.2623-1.1709-.0596-.2712-.2238-.518-.4761-.6756-.0077-.0056-4.8953-2.8449-4.8953-2.8449-.3991-.2318-.902-.1807-1.2465.1264l-2.3875 2.1298c-.4399.3923-.4784 1.067-.086 1.5069.3924.4398 1.0671.4785 1.507.086l1.81-1.6146 1.4964.8689-2.6413 3.0083c-1.0953.1786-2.0808.6833-2.8544 1.411l1.3794 1.3793c.6235-.5669 1.4514-.913 2.3586-.913 1.935 0 3.5093 1.5743 3.5093 3.5094 0 .9072-.3461 1.735-.9129 2.3586l1.3792 1.3793c.9188-.9768 1.4827-2.291 1.4827-3.7379 0-.862-.2001-1.6772-.5559-2.4021l1.4404-.0802-.3504 4.2982c-.0479.5875.3896 1.1026.9771 1.1505.0295.0024.0588.0036.0879.0036.5501 0 1.0172-.4228 1.0626-.9807l.4498-5.5186c.0251-.3075-.0841-.6107-.2993-.8316z"/>
    <path fill="#fff" d="M27.7521 18.5732c.9866 0 1.7864-.7999 1.7864-1.7866 0-.9867-.7998-1.7866-1.7864-1.7866-.9868 0-1.7866.7999-1.7866 1.7866 0 .9867.7998 1.7866 1.7866 1.7866zm-6.2938 12.4423c-1.9351 0-3.5094-1.5743-3.5094-3.5094 0-.7293.2237-1.4071.606-1.9689l-1.3943-1.3942c-.7264.9271-1.16072 2.0941-1.16072 3.3631 0 3.0146 2.44372 5.4584 5.45842 5.4584 1.2691 0 2.436-.4343 3.363-1.1608l-1.3942-1.3942c-.5618.3822-1.2396.606-1.9688.606z"/>
  </g>
</svg>