<svg width="12" height="13" viewBox="0 0 12 13" fill="none" xmlns="http://www.w3.org/2000/svg">
<g clip-path="url(#clip0_1973_2500)">
<path d="M6 12.5C9.31371 12.5 12 9.81371 12 6.5C12 3.18629 9.31371 0.5 6 0.5C2.68629 0.5 0 3.18629 0 6.5C0 9.81371 2.68629 12.5 6 12.5Z" fill="#6DA544"/>
<path d="M5.99997 2.8479L10.9565 6.50007L5.99997 10.1522L1.04346 6.50007L5.99997 2.8479Z" fill="#FFDA44"/>
<path d="M5.99997 8.58698C7.15256 8.58698 8.08692 7.65262 8.08692 6.50003C8.08692 5.34744 7.15256 4.41309 5.99997 4.41309C4.84738 4.41309 3.91302 5.34744 3.91302 6.50003C3.91302 7.65262 4.84738 8.58698 5.99997 8.58698Z" fill="#F0F0F0"/>
<path d="M4.9565 6.36963C4.59359 6.36963 4.24337 6.42482 3.9137 6.52725C3.9283 7.66725 4.85652 8.58703 5.99999 8.58703C6.70705 8.58703 7.33152 8.23507 7.70902 7.69715C7.06316 6.88863 6.06938 6.36963 4.9565 6.36963Z" fill="#0052B4"/>
<path d="M8.04826 6.89987C8.07339 6.77041 8.08696 6.63684 8.08696 6.50003C8.08696 5.34742 7.1526 4.41309 6.00001 4.41309C5.14 4.41309 4.40171 4.93342 4.08221 5.67634C4.36464 5.61782 4.65704 5.587 4.95655 5.587C6.16867 5.58698 7.26521 6.09084 8.04826 6.89987Z" fill="#0052B4"/>
</g>
<defs>
<clipPath id="clip0_1973_2500">
<rect width="12" height="12" fill="white" transform="translate(0 0.5)"/>
</clipPath>
</defs>
</svg>
