<svg width="12" height="13" viewBox="0 0 12 13" fill="none" xmlns="http://www.w3.org/2000/svg">
<g clip-path="url(#clip0_1973_2494)">
<path d="M0 6.5001C0 9.07986 1.62825 11.2791 3.91301 12.1269L4.43477 6.50007L3.91301 0.873291C1.62825 1.72107 0 3.92031 0 6.5001Z" fill="#6DA544"/>
<path d="M12 6.5C12 3.18631 9.3137 0.5 6.00002 0.5C5.2661 0.5 4.56304 0.632023 3.91302 0.873195V12.1268C4.56304 12.368 5.2661 12.5 6.00002 12.5C9.3137 12.5 12 9.81369 12 6.5Z" fill="#D80027"/>
<path d="M3.91306 8.58698C5.06564 8.58698 6 7.65262 6 6.50003C6 5.34744 5.06564 4.41309 3.91306 4.41309C2.76047 4.41309 1.82611 5.34744 1.82611 6.50003C1.82611 7.65262 2.76047 8.58698 3.91306 8.58698Z" fill="#FFDA44"/>
<path d="M2.73914 5.45654V6.76089C2.73914 7.40922 3.2647 7.9348 3.91305 7.9348C4.5614 7.9348 5.08696 7.40924 5.08696 6.76089V5.45654H2.73914Z" fill="#D80027"/>
<path d="M3.91304 7.15229C3.69728 7.15229 3.52173 6.97674 3.52173 6.76098V6.23926H4.30433V6.761C4.30433 6.97674 4.12878 7.15229 3.91304 7.15229Z" fill="#F0F0F0"/>
</g>
<defs>
<clipPath id="clip0_1973_2494">
<rect width="12" height="12" fill="white" transform="translate(0 0.5)"/>
</clipPath>
</defs>
</svg>
